# xmcd
#
# Track frame offsets: 
#        150
#        15147
#        28664
#        46464
#        64673
#        79773
#        94077
#        113662
#        130530
#        152199
#        168086
#
# Disc length: 2461 seconds
#
# Revision: 1
# Processed by: cddbd v1.5.2PL0 Copyright (c) Steve Scherf et al.
# Submitted via: ExactAudioCopy v0.99pb4
#
DISCID=76099b0b
DTITLE=Dalton - Taste The Sky
DYEAR=2006
DGENRE=Rock
TTITLE0=City Lights
TTITLE1=Taste The Sky
TTITLE2=Life Afraid
TTITLE3=Overlight
TTITLE4=600 Feet
TTITLE5=Gabriel - Hold Me
TTITLE6=Above You
TTITLE7=Take What You Want
TTITLE8=Streets
TTITLE9=Breathing In
TTITLE10=Hold Me Now - Summers Song
EXTD=
EXTT0=
EXTT1=
EXTT2=
EXTT3=
EXTT4=
EXTT5=
EXTT6=
EXTT7=
EXTT8=
EXTT9=
EXTT10=
PLAYORDER=
